<?xml version="1.0" encoding="UTF-8"?><svg xmlns="http://www.w3.org/2000/svg" xmlns:xlink="http://www.w3.org/1999/xlink" height="148.1" preserveAspectRatio="xMidYMid meet" version="1.0" viewBox="5.0 5.1 490.3 148.1" width="490.3" zoomAndPan="magnify"><g fill="#010101"><g id="change1_2"><path d="M166.2,63.2C165.9,63.2,165.8,63.3,166.2,63.2L166.2,63.2z" fill="inherit"/><path d="M348,67.7c0.1,0,0.1,0,0.2,0c0.1-0.2,0.3-0.4,0.4-0.5L348,67.7z" fill="inherit"/><path d="M377.2,70.3c0.1,0,0.1,0,0.2,0.1C377.4,70.3,377.4,70.2,377.2,70.3z" fill="inherit"/><path d="M280.6,66.7c-0.3,0-0.4,0-0.5,0.1C280.2,66.8,280.4,66.8,280.6,66.7z" fill="inherit"/><path d="M112.6,63.5c0,0,0.1,0,0.1,0c-0.1,0-0.2-0.1-0.3-0.1L112.6,63.5z" fill="inherit"/><path d="M113.2,63.2c0.6,0.2-0.2,0.3-0.5,0.3c0.7,0.3,1.4,0.3,2.1,0.2C114.8,63.4,113.5,63.4,113.2,63.2z" fill="inherit"/><path d="M14.2,68.9l0.3-0.2C14.3,68.7,14.2,68.8,14.2,68.9z" fill="inherit"/><path d="M282.9,81.9c-0.1,0-0.3,0-0.4,0.1C282.7,82,282.8,81.9,282.9,81.9z" fill="inherit"/><path d="M30.1,65.7l0.1-0.5C30.1,65.4,30,65.6,30.1,65.7z" fill="inherit"/><path d="M348.6,67.2l0.2-0.2C348.7,67.1,348.7,67.1,348.6,67.2z" fill="inherit"/><path d="M404.2,72.1c0,0.1,0.1,0.3,0.1,0.4c0,0,0.1,0,0.1,0L404.2,72.1z" fill="inherit"/><path d="M421.2,22.8c0,0-0.1,0.1-0.1,0.2l0.6,0.3C421.4,23,421.3,22.9,421.2,22.8z" fill="inherit"/><path d="M440.5,76.3c0-0.1,0.1-0.1,0.1-0.2c-0.1,0-0.2-0.1-0.3-0.1c-0.1,0-0.1,0-0.2,0c0,0-0.3,0-0.5-0.1 c-0.8-0.1-1.7-0.1-2.8-0.2l-0.2,0.6c0,0,1.1,0,2.2,0C440.2,76.3,440.5,76.3,440.5,76.3z" fill="inherit"/><path d="M465.2,70.4c0,0,1,1.4,2,2.9c0.9,1.3,1.8,2.7,1.8,2.7c-2.2-2.2-4.3-4.2-6.1-6.1c-1.7-1.9-3.3-3.7-4.8-5.4 c-0.7-0.9-1.5-1.7-2.2-2.5c-0.5-0.6-0.9-1.2-1.4-1.7c-0.7-0.9-1.3-1.7-2-2.6c-2.6-3.4-5-6.7-8.4-10.7l0.5,0.3 c-0.3-0.7-1.2-0.8-2.8-2.8c-0.8-1-1.8-2.4-3-4.6c-1.2-2.2-2.6-5.2-4.1-9.2l0.1-0.1c-0.3-0.5-0.5-0.4-0.9-1.5c0,0,0.2,0.7,0.4,1.4 c0.2,0.7,0.5,1.4,0.5,1.4c-1.2-1.3-2.5-2.4-3.7-4.3c-0.1-0.5,0-0.8,0.1-0.9c0,0-0.8-1.2-1.5-2.4c-0.7-1.2-1.5-2.5-1.5-2.5 l-0.2-1.9c-1.2-1.3-2.3,0.1-3.7-4.5c-0.2,2.1-1.7-1.8-1.9-1c0-0.3,0-0.9-0.1-1.3c-1.4-2.4-4-7.1-5.1-8c0,0,0.7,2.7,1.3,5.9 c0.7,3.1,1.5,6.7,1.7,8.3c-1.6-3.7-0.6-0.9-0.6,0l0.4,0.1c0.9,2.3,0.3,2.6,0.6,3.8c0.1,0,0.1-0.1,0.1-0.2l-0.2-0.1 c0.1-0.2,0.2-0.1,0.3-0.1c0.1-0.1,0.3-0.1,0.6,0.5l-0.1-0.1c0.6,0.8,1.3,2.4,1.7,3.1l-0.5,0.3c0.9,0.5,2,3.3,3.1,6.3 c1.1,3,2.1,6.1,2.8,7.1c0.7,2.5,3.1,4.5,4.5,7.2c2.6,4.1,0.6,2.5,1.6,4.8c1.5,2.7,0.2-0.9,1,0.1c0,0,0.4,0.9,0.7,1.7 c0.4,0.9,0.7,1.7,0.7,1.7c-1.3-1.7-0.9-0.5-0.9-0.1c0.9,1.3,1.9,3.1,2.8,4.6c1,1.5,1.9,2.7,2.7,2.7c2.2,3.8,1.9,4,3,5.5 c-0.2-0.6-0.8-1.7-0.7-1.9c0.7,1.7,0.6,0.6,0.3-0.1c0.3,0.2,0.6,0.6,0.9,1c0.2,0.2,0.3,0.5,0.5,0.7c0.1,0.1,0.2,0.3,0.3,0.4 c0.1,0.1,0.1,0.1,0.1,0.2l0.1,0.1c0.3,0.7,0.7,1.4,0.9,2c0.5,1.2,0.6,1.9,1.7,2.2l-0.4-0.1c0.8,0.2,1.6,0.3,2.3,0.5 c0.7,0.1,1.3,0.3,2.2,0.9c0,0-0.2,0.4-0.2,0.4l1.6,1.1c0,0.4-0.8-0.1-1-0.1c1.2,1,2.1,1.9,2.8,2.7c0.6,0.5-0.5,0.1-1,0.1 c-0.6-0.1-1.1-0.2-1.7-0.2c0,0,1.9,0.8,4.1,1.6c2.2,0.8,4.6,1.6,4.6,1.6c-1.9-0.4-4.5-1-6.8-1.5c-1.9-0.4-3.2-0.6-2.7-0.1 c0,0-0.7-0.3-1.4-0.5c-0.6-0.3-1.3-0.5-1.3-0.5c-1.6-0.5-2.4-0.7-2.9-0.8c-0.5,0-0.6,0.1-0.7,0.2c-0.1,0.3,0.2,0.8-0.9,0.5 c0,0-0.7-0.3-1.4-0.6c-0.7-0.3-1.2-0.6-1.2-0.6l1.9,0.1c-1.1-0.3-1.8-0.6-2.5-0.8c-0.6-0.3-1.2-0.5-1.8-0.9c0,0,0,0,0,0 c0.1,0,0.1,0.1,0.2,0.2l-0.2,0c0,0.1-0.1,0.2-0.2,0.3c-0.1,0-0.1,0.1-0.2,0.1c0,0-0.1,0-0.1,0.1c-0.1,0-0.2,0-0.3,0 c-0.7,0.1-1.6,0.1-2.7,0c-3-0.3-5.4,0.3-10.2-1.1l-1.3,0.9l-3.6-0.8l0-0.8c3.5,0.3,10.2,0.3,14.8,0.6l0.1-0.4 c-2.7-0.2-5.8,0-7.6-0.2c-0.9-0.2-3-1.2-1.4-1.6l-1.7,0.7c-9-0.4-9.1-0.4-18.4-1.8l0.8,0.4c-1.9,0.1-3.8,0.3-4.2-0.4 c-5.6-0.4-11.5-1.3-15.1-2.5l-0.9,0.9c-1.2-0.1-2.9-1.6-3.6-0.3l-2.6,0.3c-1.6-0.2-2.7,0.3-4.5-0.3v0l0,0c-0.1,0-0.2-0.1-0.3-0.1 c0,0,0,0.1,0,0.1c-3.7-0.6,0,0.8-4.2,0.1c-1.3-0.7-1.6,1.1-3.6,0.8l-2-1.4c-3.7-1-4.4,0.4-9.8,0.1c-2.6-0.6-3.8-1.8-2-2.7 c-2.4,1.1-1.1,0.8-4.3,1.2c-0.5-0.5-0.1-0.6,0.6-1c-2.8-0.7-1.7,0.4-3.8,0.2c-0.7,0.9-1.4,2.4-2.1,2.4l0.8,0.3 c-2.2,0.4-4.7,0.5-7.3-0.1l0.1-0.5L337,70l-0.1-0.6l-3.9,0l0.5,0.2c-0.9,0-4,0.1-5.7-0.3l0.1-0.3c-4.8-1.3-8.9-0.1-14.7-0.2 l0.8-0.7c-1.9-0.8-0.6,1-2.9,0.6l-0.1-0.9c-2.1,1-2.6-0.3-4-0.8l0.6,1.1l-2.6-0.3c-2.9-0.5-1.7-1.5-1.3-2.1l-2,0.8l-0.4-1 c-1.5,1.1-1.4-0.2-4,0.3c-0.2-0.4,0.5-0.6-0.4-0.8l-4.3,1.2l2.6-0.5l-0.4,1.4c-2.7,1-3.6-0.3-5.5,0l1.3-0.4 c-3.1,0.2-3.2-0.4-5-0.8c0.5,0.3,1.3,0.7,0.1,0.9c-0.9,0-0.5-0.5-1.3-0.7c-0.2,1-2.5,1.4-4.5,0.9c0-0.1,0.1-0.3,0.2-0.3 c-0.5,0.1-0.8,0.4-1.7,0.1l0.6-1.1l-1.7,1c-1.1-0.3-2.8,0.4-2.7-0.3l0.7-0.2l-8.6-0.6l-0.1-0.9c-0.9,1.1-4.7-0.6-4.5,0.9 c-1.6-0.9-6.4,0.4-5.4-1.3c-5.7-0.3-8.8,1.2-15.7,0.2c-2.4-1.5-9.2-1.2-13.6-1.5c-8.7,0.4-14.3,0.7-23.2,1 c-5.3-2.1-13.3,0.4-19-0.9l-1.6,0.7c-3.8-1.3-9.6,0.1-15-1.2c-1.3,0.3-2,0.4-2.3,0.4c0.2,0,0.6,0.2,0.7,0.7c-1.5-0.4-4.6,0-4.4-1 l0.4-0.1c0.2-1-4.6,0.4-6.3-0.5l0.9,1.1l-2.9-0.2l0.8-0.2c-12.6,2.2-18.2-1.3-30.1,0.7c1.6-1.1-2.3,0.6-2.5-0.7 c-3-1.6-5.5,0.3-8,0.7c0,0.1,0,0.1-0.2,0.2l-4.3-0.2c2.6-1.6-3.1,1.3-0.7,0c-11.1-1.3-25.7-0.2-38.5-0.8l0.6,0.4 c-3.3-0.1-7.3,0.4-9.8-0.3c-2.5-0.7-5.4,1-6.4,1.1c-2.7,0.7-5.3-0.7-4.1-0.6c-3,0.2-5.7,1.7-9.8,1.3c-0.7-0.6-3.6-0.2-6.2,0.4 c-2.7,0.6-5.1,1.2-5.3,0.4l0,0.1c-1.4-0.1-2.7,0-4,0.3c-0.7,0.1-1.3,0.3-2,0.4c-0.6,0.2-1.3,0.4-2,0.6c-2.6,0.7-5.2,1.7-8.2,2.1 c0,0,0.1-0.1,0.2-0.3c0,0-0.6,0.5-1.6,1.3c-0.9,0.8-2.1,1.8-3.3,2.9c-0.6,0.5-1.1,1.1-1.7,1.6c-0.5,0.5-1,1-1.4,1.5 C5.5,77,5,77.6,5,77.6s1.3,0.8,2.6,1.6C8.8,80,10,80.9,10,80.9s0.2,0,0.4,0c0.3,0,0.7,0,1.1,0c0.9,0,2.2,0,3.4,0.2 c1.2,0.1,2.4,0.2,3.3,0.4c0.9,0.1,1.5,0.2,1.5,0.2s0.3-0.1,1-0.3c0.6-0.2,1.5-0.5,2.6-0.8c2.2-0.6,5.1-1.3,8.1-1.8 c1.5-0.3,3.1-0.5,4.5-0.7c1.5-0.2,2.8-0.4,4-0.5c2.4-0.2,4-0.3,4-0.3s1.3,0,3.2,0.1c1.9,0.1,4.5,0.3,7.1,0.5 c5.3,0.4,10.5,0.8,10.5,0.8s12.9-0.1,25.8-0.2c12.9,0,25.8-0.1,25.8-0.1l3.7-1.1c10.1,2.1,23.1,0,34,1.6l0.2-1 c3.1,0,2.9,0.6,3.6,0.8c28.6,0.3,58.1-0.3,83.8,1.7c2.5,0.7,10,0.6,11.9,1.3c8.4-1,17.2-0.6,25.6-0.2l-0.3,0.1l3.9-0.1 c0.2,0.1,0.2,0.2,0.1,0.3c4.5-0.7,11.4,0.4,16.9,1l-0.3,0.1c31.7,1.4,61.3,0.9,92.7,4c7.3,1.2,15.2,1.5,23.4,1.8 c4.1,0.1,8.3,0.3,12.4,0.5c2.1,0.1,4.2,0.3,6.3,0.5l3.1,0.3l1.6,0.2l2.9,0.3c1.7,0.4,8.5,1,17.5,1.6c8.9,0.6,20,1.3,29.8,1.8 c-5.9-5.8-11.4-11.2-15.7-15.5C469.2,74.2,466.2,71.3,465.2,70.4z" fill="inherit"/><path d="M431.3,26.6l0.1,0.1C431.7,26.5,431.5,26.4,431.3,26.6z" fill="inherit"/><path d="M453.2,78.3c0.1,0,0.1,0,0.2,0l-1.7-0.7L453.2,78.3z" fill="inherit"/><path d="M435.1,54.1c1.1,1.8,1.2,1.8,1.2,1.4C435.8,54.9,435.4,54.4,435.1,54.1z" fill="inherit"/><path d="M422.9,12.8c-0.4-0.9-0.5-0.5-0.5,0.2c0.5,0.9,0.9,1.6,0.9,1.6C423.2,14,423.1,13.4,422.9,12.8z" fill="inherit"/><path d="M419.9,19.2l-0.5-0.1C419.8,19.6,419.9,19.5,419.9,19.2z" fill="inherit"/></g><g id="change1_1"><path d="M433.7,122.3C433.6,122.3,433.7,122.4,433.7,122.3L433.7,122.3z" fill="inherit"/><path d="M456.7,98.9C456.7,98.9,456.7,98.8,456.7,98.9c-0.1-0.2-0.2-0.3-0.2-0.5L456.7,98.9z" fill="inherit"/><path d="M461.6,96.5C461.6,96.5,461.6,96.5,461.6,96.5C461.6,96.4,461.5,96.3,461.6,96.5z" fill="inherit"/><path d="M448.7,108.2c0,0,0,0.1,0,0.1C448.7,108.3,448.7,108.3,448.7,108.2z" fill="inherit"/><path d="M427.9,130.2C427.9,130.2,427.9,130.1,427.9,130.2c0,0-0.1,0-0.1-0.1L427.9,130.2z" fill="inherit"/><path d="M427.7,129.9c0.2,0,0.2,0.2,0.2,0.3c0.3,0.1,0.4,0,0.4-0.2C428.1,129.8,427.9,130,427.7,129.9z" fill="inherit"/><path d="M417.4,144.1l-0.1-0.1C417.4,144,417.4,144.1,417.4,144.1z" fill="inherit"/><path d="M459.2,119.1c0,0,0,0.1,0,0.1C459.2,119.2,459.2,119.1,459.2,119.1z" fill="inherit"/><path d="M419.4,142.1l-0.4-0.3C419.1,142,419.3,142.1,419.4,142.1z" fill="inherit"/><path d="M456.5,98.4l-0.1-0.2C456.4,98.3,456.4,98.3,456.5,98.4z" fill="inherit"/><path d="M465.6,93.7c0.1,0.1,0.2,0.2,0.2,0.3c0,0,0,0,0,0L465.6,93.7z" fill="inherit"/><path d="M489.9,86.2c0,0-0.1-0.1-0.1-0.2l0.1,0.3C489.9,86.3,489.9,86.3,489.9,86.2z" fill="inherit"/><path d="M472.2,91.4c0,0,0-0.1-0.1-0.2c-0.2-0.1-0.5,0.1-0.7,0.3l0.3,0.5L472.2,91.4z" fill="inherit"/><path d="M486.1,98.7l-1.2-0.6c1.5-1.7,3-1.3,4-3.1l0.1,0.3c0.4,0.1-1-2.3,3.3-1.1l0.1,0.1c0.1-0.1-0.1-0.3,0.3-0.1 l-0.8-0.3c0.1-0.4,0-1,0.3-1.3c0.1,0.1,0.3,0.3,0.4,0.4l0.7-0.7l0.7,0.5c0-0.5-1-1.8,0.2-1.5c-0.9-0.8,0-0.8-0.4-1.2 c0.1,0.1,0.3,0.2,0.5,0.3c0.3-0.4,1-1.1,0.8-1.8c0,0-2.9-1-4-1.7c0.8-0.1,0.1-0.2-0.2-0.5l0.1,0.3c-0.5,0-0.9-0.6-1.2-0.7 c0,0,0.1,0.1,0.1,0.2l0-0.1c0.1,0.1,0.1,0.2,0.1,0.2c0.1,0.1,0.1,0.2,0,0.3l0-0.1c-0.1,0.2-0.4,0.3-0.6,0.3l-0.3-0.5 c0.4,1.1-2.7-0.3-3.1-0.1c-0.8-0.4-0.7,0.7-1.3,0.7c-0.8,0.3-0.8-0.5-1.5-0.7c-0.7,0,0.5,0.5,0.3,0.7l-1-0.3 c0.3-0.3-0.1-0.5-0.3-0.6c-0.5,0.2-1.9-0.2-1.3,0.9c-0.9-0.1-1.2-0.5-1.5-0.3c0.2,0.1,0.5,0.2,0.6,0.4c-0.5-0.3,0,0.2,0.1,0.2 c-0.1,0.7-3.2-0.4-2.5,0.7l-0.1-0.2c0.5,0.9,1.2,1.5,1.2,2.2l-0.4-0.2l0,0.5c-0.4-0.1-0.4-0.4-0.5-0.5c-0.2,0.7-1.1,0.7-1.7,0.9 l2.1,1.8c-0.8-0.2-2.3-0.7-1.9,0.1l-0.8-0.5c-1.9-0.8-0.2,1-0.8,0.9l-1-0.5l0.4-0.3c-0.7-0.1-1.1-0.2-1.8-0.5l0,0 c0,0,0.1,0,0.1,0.1l0,0.1c0.2,0.4,0.2,0.9-0.1,1.1c-0.5,0.2-0.4,1-1.7,0.7l0.4,0.9l-0.9-0.1l-0.5-0.6c0.5-0.3,1.3-1.3,2-1.8 l-0.2-0.3c-0.4,0.3-0.6,0.9-0.9,1c-0.2,0-1-0.5-1.1-1.1l0.2,0.8c-1.3,1-1.2,1.1-3.1,1.4l0.4,0.2c-0.1,0.4-0.3,0.8-0.7,0.3 c-0.9,0.5-2,0.8-3.2,0.4l0.5,0.8c-0.2,0.1-1.3-0.8-0.6,0.3l-0.1,0.6c-0.3,0.1-0.1,0.7-0.7,0.5l0,0l0,0c0,0-0.1,0-0.1,0 c0,0,0,0,0.1,0.1c-0.8,0.1,0.5,0.7-0.4,0.7c-0.6-0.4,0.5,1.1,0.1,1.2l-1.1-0.8c-1-0.2-0.3,0.9-1,1.6c-0.7-0.1-1.6-0.8-2-1.8 c0.4,1.2,0.4,0.7,0.3,1.6c-0.4-0.3-0.4-0.5-0.6-0.9c-0.8-0.1,0,0.6-0.3,0.8c0.5,0.8,1.4,2.1,1.3,2.2l0.3,0.1c0,0.7-0.2,1.1-0.8,1 l-0.3-0.4l-0.2,0.5l-0.4-0.4l-0.4,0.6l0.2,0.1c-0.1,0.2-0.4,0.7-0.8,0.6l-0.2-0.3c-1.4-0.2-1,1.3-1.7,2l-0.4-0.6 c-0.7-0.3,0.6,0.9,0.1,0.9l-0.6-0.6c0.5,1.1-0.5,0.1-1,0l0.8,0.8l-0.5,0.1c-0.6,0.1-1.2-0.8-1.5-1.3l0.3,0.9l-0.7-0.7 c0.6,1-0.3,0-0.3,0.8c-0.3-0.3-0.3-0.5-0.6-0.5l0.4,1.5l-0.1-0.8l0.9,1.1c0.4,1.1-0.6,0.3-0.6,0.8l-0.1-0.5 c-0.2,0.6-0.6,0.2-1.1,0.2c0.3,0.1,0.6,0.3,0.6,0.6c-0.1,0.2-0.4-0.3-0.6-0.3c0.6,0.7,0.7,1.4,0.1,1.3c-0.1-0.1-0.2-0.2-0.2-0.3 c0,0.2,0.2,0.4-0.1,0.3l-0.6-0.9l0.5,1c-0.3-0.1,0,0.7-0.5,0.1l-0.1-0.2l-1.3,0.9l-0.6-0.6c0.7,1-0.9,0.3,0.1,1.3 c-0.8-0.4-0.5,1.2-1.5-0.1c-0.8,0.6-0.2,2.1-1.6,2.4c-1.3-0.7-1.9,0.5-2.5,0.9c-0.7,1.5-1.1,2.6-1.9,4.1c-2.1-0.7-1.2,2.2-2.7,2.1 l0.4,0.7c-1.4-0.4-1,1.4-2.5,1.3c0.1,0.4,0.1,0.6,0.1,0.6c0.1,0,0.2,0,0.6,0.4c-0.4,0-0.5,0.7-1.2,0l0-0.1 c-0.7-0.7-0.2,0.9-1.1,0.6l0.9,0.6l-0.5,0.3l-0.1-0.2c0.2,3.2-3,1.7-2.8,4.8c-0.7-1,0.2,0.7-0.8-0.1c-1.5-0.7-0.4,1-0.4,1.6 c0,0,0.1,0.1,0.2,0.2l-0.6,0.5c-0.9-1.4,0.6,1.3-0.1,0.1c-2.2,0.7-3,3.5-4.9,4.9l0.4,0.2c-0.4,0.4-0.5,1.3-1.3,1.2 c-0.8-0.1,0.2,1.4,0.1,1.6c0.2,0.8-1.1,0.3-0.9,0.2c-0.2,0.5,0.6,1.8-0.3,2c-1.2-0.7-0.2,2.4-1.4,1.4l0.1,0.1 c-1.4,0.1-0.5,1.9-1.9,2.1c0,0-0.1-0.1-0.1-0.2l2.4,4.4l4.4,2.7l4.3,1.2c0,0,0.5-1,1-2.1c0.5-1,1.1-2.1,1.1-2.1l3.5-1.8 c0,0,0.3-0.4,0.8-1.1c0.5-0.7,1.2-1.5,1.8-2.4c0.7-0.9,1.3-1.7,1.8-2.4c0.5-0.6,0.9-1.1,0.9-1.1l-0.4-1.2c2.7,0.1,2.4-3.2,4.8-3.5 l-0.7-0.7c0.3-0.4,0.7,0,1,0c3.2-3.7,5.8-8.2,9.9-10.3c0.7,0.2,1.4-1,2.1-0.7c0.2-1.8,1.3-2.9,2.5-3.8l0,0.1l0.4-0.6 c0.1,0,0.2,0.1,0.2,0.2c0-1.2,1.5-1.3,2.4-1.6l0,0.1c4.2-3.4,6.9-8.1,12-10.3c1.5-0.1,2.5-1.1,3.4-2.1c1-1,2-2,3.6-2.3 C481.6,103.3,485.9,99.4,486.1,98.7z" fill="inherit"/><path d="M492.4,92.9L492.4,92.9C492.6,93.2,492.6,93.1,492.4,92.9z" fill="inherit"/><path d="M475.9 90.3L475.9 90.3 475.5 89.9z" fill="inherit"/><path d="M482.3,85.5c-0.4,0.1-0.3,0.2-0.2,0.3C482.2,85.7,482.3,85.6,482.3,85.5z" fill="inherit"/><path d="M494.4,90.7c0.2-0.1,0-0.2-0.3-0.4c-0.1,0.1-0.2,0.2-0.2,0.2C494,90.5,494.3,90.6,494.4,90.7z" fill="inherit"/><path d="M490.7,86.3l-0.1-0.3C490.6,86.1,490.6,86.2,490.7,86.3z" fill="inherit"/></g></g></svg>